{"title":"Google: Corporate Terror? (Documentary) XviD Avi 673Mb","uid":5284100,"size":673142445,"categoryP":"video","categoryS":"tv_shows","magnet":"?xt=urn:btih:cb2ede0dc22bd97f332f8b8b8bb12ba8969b6ae9&amp;dn=Google%3A+Corporate+Terror%3F+%28Documentary%29+XviD+Avi+673Mb&amp;tr=udp%3A%2F%2Ftracker.openbittorrent.com%3A80&amp;tr=udp%3A%2F%2Fopen.demonii.com%3A1337&amp;tr=udp%3A%2F%2Ftracker.coppersurfer.tk%3A6969&amp;tr=udp%3A%2F%2Fexodus.desync.com%3A6969","seeders":1,"leechers":0,"uploader":null,"files":-1,"time":1263654520,"description":"Google Documentary 2010\n=======================\n\nA documentary covering the Google empire; which exposes its phenomenal\ncorporate growth and potentially monopolistic, intrusive nature.\n\nVisit the gallery, if you dare (lol)!\n\n &lt;a href=&quot;\nhttp://www.scroogle.org/th/thumbs.html&quot; rel=&quot;nofollow&quot; target=&quot;_NEW&quot;&gt;\nhttp://www.scroogle.org/th/thumbs.html&lt;/a&gt;\n\n\nGood quality XviD AVI, with MD5 file.\n\n----------\n\nGeneral\nFormat                           : AVI\nFormat/Info                      : Audio Video Interleave\nFile size                        : 642 MiB\nDuration                         : 42mn 36s\nOverall bit rate                 : 2 106 Kbps\n\nVideo\nFormat                           : MPEG-4 Visual\nCodec ID                         : XVID\nDuration                         : 42mn 36s\nBit rate                         : 1 998 Kbps\nWidth                            : 720 pixels\nHeight                           : 480 pixels\nFrame rate                       : 29.970 fps\nStandard                         : NTSC\nScan type                        : Progressive\nStream size                      : 609 MiB (95%)\nWriting library                  : XviD 1.2.1 (UTC 2008-12-04)\n\nAudio\nFormat                           : MPEG Audio\nFormat version                   : Version 1\nFormat profile                   : Layer 3\nCodec ID/Hint                    : MP3\nDuration                         : 42mn 36s\nBit rate mode                    : Constant\nBit rate                         : 96.0 Kbps\nChannel(s)                       : 1 channel\nSampling rate                    : 48.0 KHz\nStream size                      : 29.3 MiB (5%)\n\n----------\n\nPlease seed as much as you can and remember that others depend upon you,\njust as you depend upon them.\n\nDistribute elsewhere, as much as you please.\n\nOriginal seed will end at 2x.\n\n----\n\nGoogleDocumentary-avi.md5\nGoogleDocumentary.avi\nGoogleDocumentary.jpg\nReadme.nfo\n\n","torrent":{"xt":"urn:btih:cb2ede0dc22bd97f332f8b8b8bb12ba8969b6ae9","amp;dn":"Google%3A+Corporate+Terror%3F+%28Documentary%29+XviD+Avi+673Mb","amp;tr":["udp%3A%2F%2Ftracker.openbittorrent.com%3A80","udp%3A%2F%2Fopen.demonii.com%3A1337","udp%3A%2F%2Ftracker.coppersurfer.tk%3A6969","udp%3A%2F%2Fexodus.desync.com%3A6969"],"infoHash":"cb2ede0dc22bd97f332f8b8b8bb12ba8969b6ae9","infoHashBuffer":{"type":"Buffer","data":[203,46,222,13,194,43,217,127,51,47,139,139,139,177,43,168,150,155,106,233]},"announce":[],"urlList":[]}}